<?xml version="1.0" encoding="UTF-8" standalone="no"?>
<svg
     version="1.1"
     xmlns="http://www.w3.org/2000/svg"
     width="256"
     height="256"
     viewBox="0 0 256 256"
     fill="none">
     <rect
          width="256"
          height="256"
          rx="60"
          fill="#394AAB" />
     <path
          d="M134.001 33C169.144 33 199.828 52.0863 216.262 80.4561L216.102 80.183L174.753 103.991C166.607 90.1977 151.672 80.8892 134.54 80.6975L134.001 80.6945C107.875 80.6945 86.6945 101.874 86.6945 127.999C86.6945 136.543 88.9723 144.552 92.9335 151.469C101.088 165.704 116.416 175.306 134.001 175.306C151.693 175.306 167.109 165.582 175.222 151.195L175.025 151.54L216.311 175.458C200.057 203.588 169.794 222.615 135.059 222.994L134.001 223C98.746 223 67.9753 203.796 51.582 175.276C43.5791 161.353 39 145.212 39 127.999C39 75.5334 81.5323 33 134.001 33Z"
          fill="#FFFFFF" />
     <metadata>
          <rdf:RDF
               xmlns:rdf="http://www.w3.org/1999/02/22-rdf-syntax-ns#"
               xmlns:rdfs="http://www.w3.org/2000/01/rdf-schema#"
               xmlns:dc="http://purl.org/dc/elements/1.1/">
               <rdf:Description
                    dc:creator="tandpfun"
                    dc:source="https://github.com/tandpfun/skill-icons/blob/65dea6c4eaca7da319e552c09f4cf5a9a8dab2c8/icons/C.svg"
                    dc:title="C"
                    dc:date="2022-03-02"
                    dc:format="image/svg+xml">
               </rdf:Description>
          </rdf:RDF>
     </metadata>
</svg>