<?xml version="1.0" encoding="UTF-8" standalone="no"?>
<svg
     version="1.1"
     xmlns="http://www.w3.org/2000/svg"
     width="256"
     height="256"
     viewBox="0 0 256 256"
     fill="none">
     <rect
          width="256"
          height="256"
          rx="60"
          ry="60"
          fill="#FFFFFF" />
     <rect
          width="182"
          height="182"
          rx="20"
          ry="20"
          x="37"
          y="36"
          fill="#676767" />
     <!-- PINS TOP -->
     <rect
          width="4.7"
          height="35.6"
          rx="2"
          ry="2"
          x="63.5"
          y="4"
          fill="#676767"
          style="stroke: #FFFFFF; stroke-width: 1;" />
     <rect
          width="4.7"
          height="35.6"
          rx="2"
          ry="2"
          x="94.8"
          y="4"
          fill="#676767"
          style="stroke: #FFFFFF; stroke-width: 1;" />
     <rect
          width="4.7"
          height="35.6"
          rx="2"
          ry="2"
          x="126.4"
          y="4"
          fill="#676767"
          style="stroke: #FFFFFF; stroke-width: 1;" />
     <rect
          width="4.7"
          height="35.6"
          rx="2"
          ry="2"
          x="157.4"
          y="4"
          fill="#676767"
          style="stroke: #FFFFFF; stroke-width: 1;" />
     <rect
          width="4.7"
          height="35.6"
          rx="2"
          ry="2"
          x="188.6"
          y="4"
          fill="#676767"
          style="stroke: #FFFFFF; stroke-width: 1;" />
     <!-- PINS BOTTOM -->
     <rect
          width="4.7"
          height="35.6"
          rx="2"
          ry="2"
          x="63.5"
          y="216"
          fill="#676767"
          style="stroke: #FFFFFF; stroke-width: 1;" />
     <rect
          width="4.7"
          height="35.6"
          rx="2"
          ry="2"
          x="94.8"
          y="216"
          fill="#676767"
          style="stroke: #FFFFFF; stroke-width: 1;" />
     <rect
          width="4.7"
          height="35.6"
          rx="2"
          ry="2"
          x="126.4"
          y="216"
          fill="#676767"
          style="stroke: #FFFFFF; stroke-width: 1;" />
     <rect
          width="4.7"
          height="35.6"
          rx="2"
          ry="2"
          x="157.4"
          y="216"
          fill="#676767"
          style="stroke: #FFFFFF; stroke-width: 1;" />
     <rect
          width="4.7"
          height="35.6"
          rx="2"
          ry="2"
          x="188.6"
          y="216"
          fill="#676767"
          style="stroke: #FFFFFF; stroke-width: 1;" />
     <!-- PINS LEFT -->
     <rect
          width="35.6"
          height="4.7"
          rx="2"
          ry="2"
          x="4"
          y="63.5"
          fill="#676767"
          style="stroke: #FFFFFF; stroke-width: 1;" />
     <rect
          width="35.6"
          height="4.7"
          rx="2"
          ry="2"
          x="4"
          y="94.8"
          fill="#676767"
          style="stroke: #FFFFFF; stroke-width: 1;" />
     <rect
          width="35.6"
          height="4.7"
          rx="2"
          ry="2"
          x="4"
          y="126.4"
          fill="#676767"
          style="stroke: #FFFFFF; stroke-width: 1;" />
     <rect
          width="35.6"
          height="4.7"
          rx="2"
          ry="2"
          x="4"
          y="157.4"
          fill="#676767"
          style="stroke: #FFFFFF; stroke-width: 1;" />
     <rect
          width="35.6"
          height="4.7"
          rx="2"
          ry="2"
          x="4"
          y="188.6"
          fill="#676767"
          style="stroke: #FFFFFF; stroke-width: 1;" />
     <!-- PINS RIGHT -->
     <rect
          width="35.6"
          height="4.7"
          rx="2"
          ry="2"
          x="216"
          y="63.5"
          fill="#676767"
          style="stroke: #FFFFFF; stroke-width: 1;" />
     <rect
          width="35.6"
          height="4.7"
          rx="2"
          ry="2"
          x="216"
          y="94.8"
          fill="#676767"
          style="stroke: #FFFFFF; stroke-width: 1;" />
     <rect
          width="35.6"
          height="4.7"
          rx="2"
          ry="2"
          x="216"
          y="126.4"
          fill="#676767"
          style="stroke: #FFFFFF; stroke-width: 1;" />
     <rect
          width="35.6"
          height="4.7"
          rx="2"
          ry="2"
          x="216"
          y="157.4"
          fill="#676767"
          style="stroke: #FFFFFF; stroke-width: 1;" />
     <rect
          width="35.6"
          height="4.7"
          rx="2"
          ry="2"
          x="216"
          y="188.6"
          fill="#676767"
          style="stroke: #FFFFFF; stroke-width: 1;" />
     <!-- GRID -->
     <rect
          width="130.5"
          height="3"
          rx="2"
          ry="2"
          x="62.72"
          y="78"
          fill="#FFFFFF" />
     <rect
          width="130.5"
          height="3"
          rx="2"
          ry="2"
          x="62.72"
          y="112"
          fill="#FFFFFF" />
     <rect
          width="130.5"
          height="3"
          rx="2"
          ry="2"
          x="62.72"
          y="144"
          fill="#FFFFFF" />
     <rect
          width="130.5"
          height="3"
          rx="2"
          ry="2"
          x="62.72"
          y="175"
          fill="#FFFFFF" />
     <rect
          width="3"
          height="130.5"
          rx="2"
          ry="2"
          x="80"
          y="62.72"
          fill="#FFFFFF" />
     <rect
          width="3"
          height="130.5"
          rx="2"
          ry="2"
          x="112"
          y="62.72"
          fill="#FFFFFF" />
     <rect
          width="3"
          height="130.5"
          rx="2"
          ry="2"
          x="144"
          y="62.72"
          fill="#FFFFFF" />
     <rect
          width="3"
          height="130.5"
          rx="2"
          ry="2"
          x="175"
          y="62.72"
          fill="#FFFFFF" />
     <!-- ARRAY PINS -->
     <rect
          width="14.4"
          height="16.6"
          rx="2"
          ry="2"
          x="54.5"
          y="53.5"
          fill="#FFFFFF" />
     <rect
          width="14.4"
          height="16.6"
          rx="2"
          ry="2"
          x="54.5"
          y="87.8"
          fill="#FFFFFF" />
     <rect
          width="14.4"
          height="16.6"
          rx="2"
          ry="2"
          x="54.5"
          y="121.5"
          fill="#FFFFFF" />
     <rect
          width="14.4"
          height="16.6"
          rx="2"
          ry="2"
          x="54.5"
          y="153"
          fill="#FFFFFF" />
     <rect
          width="14.4"
          height="16.6"
          rx="2"
          ry="2"
          x="54.5"
          y="184.5"
          fill="#FFFFFF" />
     <rect
          width="14.4"
          height="16.6"
          rx="2"
          ry="2"
          x="90"
          y="53.5"
          fill="#FFFFFF" />
     <rect
          width="14.4"
          height="16.6"
          rx="2"
          ry="2"
          x="90"
          y="87.8"
          fill="#FFFFFF" />
     <rect
          width="14.4"
          height="16.6"
          rx="2"
          ry="2"
          x="90"
          y="121.5"
          fill="#FFFFFF" />
     <rect
          width="14.4"
          height="16.6"
          rx="2"
          ry="2"
          x="90"
          y="153"
          fill="#FFFFFF" />
     <rect
          width="14.4"
          height="16.6"
          rx="2"
          ry="2"
          x="90"
          y="184.5"
          fill="#FFFFFF" />
     <rect
          width="14.4"
          height="16.6"
          rx="2"
          ry="2"
          x="122.2"
          y="53.5"
          fill="#FFFFFF" />
     <rect
          width="14.4"
          height="16.6"
          rx="2"
          ry="2"
          x="122.2"
          y="87.8"
          fill="#FFFFFF" />
     <rect
          width="14.4"
          height="16.6"
          rx="2"
          ry="2"
          x="122.2"
          y="121.5"
          fill="#FFFFFF" />
     <rect
          width="14.4"
          height="16.6"
          rx="2"
          ry="2"
          x="122.2"
          y="153"
          fill="#FFFFFF" />
     <rect
          width="14.4"
          height="16.6"
          rx="2"
          ry="2"
          x="122.2"
          y="184.5"
          fill="#FFFFFF" />
     <rect
          width="14.4"
          height="16.6"
          rx="2"
          ry="2"
          x="154"
          y="53.5"
          fill="#FFFFFF" />
     <rect
          width="14.4"
          height="16.6"
          rx="2"
          ry="2"
          x="154"
          y="87.8"
          fill="#FFFFFF" />
     <rect
          width="14.4"
          height="16.6"
          rx="2"
          ry="2"
          x="154"
          y="121.5"
          fill="#FFFFFF" />
     <rect
          width="14.4"
          height="16.6"
          rx="2"
          ry="2"
          x="154"
          y="153"
          fill="#FFFFFF" />
     <rect
          width="14.4"
          height="16.6"
          rx="2"
          ry="2"
          x="154"
          y="184.5"
          fill="#FFFFFF" />
     <rect
          width="14.4"
          height="16.6"
          rx="2"
          ry="2"
          x="186.2"
          y="53.5"
          fill="#FFFFFF" />
     <rect
          width="14.4"
          height="16.6"
          rx="2"
          ry="2"
          x="186.2"
          y="87.8"
          fill="#FFFFFF" />
     <rect
          width="14.4"
          height="16.6"
          rx="2"
          ry="2"
          x="186.2"
          y="121.5"
          fill="#FFFFFF" />
     <rect
          width="14.4"
          height="16.6"
          rx="2"
          ry="2"
          x="186.2"
          y="153"
          fill="#FFFFFF" />
     <rect
          width="14.4"
          height="16.6"
          rx="2"
          ry="2"
          x="186.2"
          y="184.5"
          fill="#FFFFFF" />
     <!-- TITLE (letters traced using Vector Magic tool) -->
     <rect
          width="96"
          height="32"
          x="81"
          y="113"
          fill="#FFFFFF" />
     <path
          d=" M87.48 118.82 C 89.19 118.80 90.91 118.80 92.63 118.81 C 94.12 123.42 96.18 127.82 97.55 132.47 C 98.63 127.74 100.83 123.39 102.32 118.80 C 104.00 118.80 105.69 118.80 107.38 118.82 C 104.73 125.23 102.56 131.80 100.23 138.33 C 98.34 138.33 96.45 138.34 94.56 138.36 C 92.34 131.79 89.94 125.30 87.48 118.82 Z"
          fill="#676767" stroke="#676767" stroke-width="0.09375" />
     <path
          d=" M 122.18 118.78 C 123.84 118.79 125.50 118.82 127.16 118.85 C 127.02 125.36 127.37 131.89 126.97 138.40 C 125.37 138.36 123.77 138.34 122.18 138.32 C 122.16 135.43 122.16 132.55 122.16 129.67 C 119.66 129.65 117.17 129.65 114.68 129.67 C 114.70 132.58 114.73 135.50 114.55 138.41 C 112.94 138.37 111.32 138.33 109.71 138.30 C 109.70 131.80 109.70 125.30 109.72 118.81 C 111.36 118.80 113.02 118.80 114.67 118.80 C 114.68 121.21 114.68 123.63 114.68 126.05 C 117.17 126.06 119.66 126.06 122.15 126.04 C 122.16 123.62 122.16 121.20 122.18 118.78 Z"
          fill="#676767" stroke="#676767" stroke-width="0.09375" />

     <path
          d=" M132.20 118.82 C 137.11 119.01 142.73 117.81 146.89 121.11 C 152.41 125.46 150.71 135.84 143.80 137.82 C 140.01 138.72 136.05 138.22 132.19 138.31 C 132.22 131.81 132.20 125.31 132.20 118.82 M 137.20 122.44 C 137.16 126.49 137.16 130.54 137.20 134.60 C 139.29 134.46 141.52 134.52 143.37 133.41 C 145.89 130.53 145.53 125.70 142.73 123.14 C 140.98 122.44 139.05 122.56 137.20 122.44 Z"
          fill="#676767" stroke="#676767" stroke-width="0.09375" />
     <path
          d=" M153.80 118.82 C 155.45 118.80 157.11 118.79 158.77 118.78 C 158.80 123.99 158.76 129.19 158.79 134.39 C 161.86 134.40 164.92 134.40 167.99 134.40 C 167.99 135.70 168.00 137.02 168.00 138.33 C 163.27 138.34 158.54 138.34 153.81 138.33 C 153.79 131.82 153.81 125.32 153.80 118.82 Z"
          fill="#676767" stroke="#676767" stroke-width="0.09375" />
     <metadata>
          <rdf:RDF
               xmlns:rdf="http://www.w3.org/1999/02/22-rdf-syntax-ns#"
               xmlns:rdfs="http://www.w3.org/2000/01/rdf-schema#"
               xmlns:dc="http://purl.org/dc/elements/1.1/">
               <rdf:Description
                    dc:creator="onegen"
                    dc:title="VHDL"
                    dc:description="By-hand recreation of OS-VHDL group (https://github.com/VHDL) logo in style of tandpfun/skill-icons"
                    dc:source="https://github.com/onegentig/onegentig/blob/main/assets/raw/VHDL.svg"
                    dc:date="2024-04-05"
                    dc:format="image/svg+xml">
               </rdf:Description>
          </rdf:RDF>
     </metadata>
</svg>